<svg width="42" height="42" viewBox="0 0 42 42" fill="none" xmlns="http://www.w3.org/2000/svg">
<ellipse cx="21.3958" cy="21.0003" rx="17.1514" ry="17.2" fill="#181717"/>
<path d="M6.65771 29.8015C8.74559 33.3092 12.0437 36.0085 15.9741 37.3208C16.8323 37.4781 17.145 36.947 17.145 36.4909C17.145 36.302 17.1418 35.9683 17.1376 35.5218C17.1327 35.0046 17.1263 34.3361 17.1218 33.566C12.3511 34.605 11.3445 31.26 11.3445 31.26C10.5643 29.2738 9.43977 28.7448 9.43977 28.7448C7.88251 27.6773 9.5577 27.6984 9.5577 27.6984C11.2792 27.8209 12.1847 29.4713 12.1847 29.4713C13.7146 32.0994 16.1995 31.3402 17.1766 30.901C17.3324 29.7891 17.7746 29.031 18.2653 28.6012C14.4569 28.1672 10.4527 26.6911 10.4527 20.1002C10.4527 18.2228 11.1213 16.6876 12.2184 15.4849C12.0415 15.0499 11.4529 13.3013 12.3858 10.9329C12.3858 10.9329 13.8262 10.4704 17.1029 12.6963C18.4706 12.3151 19.9384 12.124 21.3966 12.1176C22.8528 12.124 24.3206 12.3151 25.6904 12.6963C28.965 10.4704 30.4022 10.9329 30.4022 10.9329C31.3382 13.3013 30.7497 15.0499 30.5728 15.4849C31.672 16.6876 32.3364 18.2228 32.3364 20.1002C32.3364 26.708 28.3259 28.162 24.5048 28.5875C25.1208 29.1186 25.6694 30.1682 25.6694 31.7731C25.6694 33.3104 25.6599 34.6494 25.6537 35.5364C25.6506 35.9757 25.6483 36.3041 25.6483 36.4909C25.6483 36.9512 25.9568 37.4866 26.8276 37.3187C29.9587 36.2706 32.6881 34.3426 34.7232 31.827C31.5786 35.7146 26.7767 38.1993 21.3961 38.1993C15.1312 38.1993 9.6509 34.8309 6.65771 29.8015Z" fill="white"/>
</svg>
