<svg width="42" height="42" viewBox="0 0 42 42" fill="none" xmlns="http://www.w3.org/2000/svg">
<rect x="0.320801" y="0.359863" width="41.28" height="41.28" rx="20.64" fill="white"/>
<path fill-rule="evenodd" clip-rule="evenodd" d="M33.6953 21.3057C33.6953 20.3544 33.6099 19.4397 33.4513 18.5615H20.8159V23.7511H28.0362C27.7252 25.4281 26.7799 26.8489 25.3591 27.8003V31.1665H29.6949C32.2317 28.8309 33.6953 25.3915 33.6953 21.3057Z" fill="#4285F4"/>
<path fill-rule="evenodd" clip-rule="evenodd" d="M20.8167 34.4163C24.439 34.4163 27.4759 33.2149 29.6956 31.1659L25.3598 27.7997C24.1585 28.6047 22.6217 29.0804 20.8167 29.0804C17.3224 29.0804 14.3648 26.7204 13.3098 23.5493H8.82764V27.0253C11.0352 31.4099 15.5722 34.4163 20.8167 34.4163Z" fill="#34A853"/>
<path fill-rule="evenodd" clip-rule="evenodd" d="M13.3093 23.5491C13.041 22.7442 12.8885 21.8843 12.8885 21.0001C12.8885 20.1159 13.041 19.256 13.3093 18.4511V14.9751H8.82712C7.91849 16.7863 7.40015 18.8352 7.40015 21.0001C7.40015 23.165 7.91849 25.2139 8.82712 27.0251L13.3093 23.5491Z" fill="#FBBC05"/>
<path fill-rule="evenodd" clip-rule="evenodd" d="M20.8164 12.9199C22.7861 12.9199 24.5546 13.5968 25.945 14.9262L29.7929 11.0782C27.4695 8.91339 24.4326 7.58398 20.8164 7.58398C15.572 7.58398 11.0349 10.5904 8.82739 14.975L13.3096 18.4509C14.3645 15.2799 17.3222 12.9199 20.8164 12.9199Z" fill="#EA4335"/>
</svg>
