<svg width="42" height="42" viewBox="0 0 42 42" fill="none" xmlns="http://www.w3.org/2000/svg">
<path d="M29.7889 2.94092H12.655C7.92143 2.94092 4.07056 6.97423 4.07056 11.9321V28.3498C4.07056 33.3076 7.92143 37.3409 12.655 37.3409H29.7889C34.5225 37.3409 38.3734 33.3076 38.3734 28.3498V11.9321C38.3734 6.97423 34.5225 2.94092 29.7889 2.94092ZM7.09888 11.9321C7.09888 8.72369 9.59175 6.11271 12.655 6.11271H29.7889C32.8522 6.11271 35.3451 8.72369 35.3451 11.9321V28.3498C35.3451 31.5581 32.8522 34.1691 29.7889 34.1691H12.655C9.59175 34.1691 7.09888 31.5581 7.09888 28.3498V11.9321Z" fill="#A434A5"/>
<path d="M21.0348 28.2798C25.4366 28.2798 29.0198 24.5289 29.0198 19.9165C29.0198 15.3041 25.4386 11.5532 21.0348 11.5532C16.631 11.5532 13.0498 15.3041 13.0498 19.9165C13.0498 24.5289 16.631 28.2798 21.0348 28.2798ZM21.0348 14.727C23.7682 14.727 25.9915 17.0556 25.9915 19.9185C25.9915 22.7815 23.7682 25.11 21.0348 25.11C18.3014 25.11 16.0781 22.7815 16.0781 19.9185C16.0781 17.0556 18.3014 14.727 21.0348 14.727Z" fill="#A434A5"/>
<path d="M29.9461 13.1264C31.1314 13.1264 32.0976 12.1165 32.0976 10.873C32.0976 9.62948 31.1334 8.61963 29.9461 8.61963C28.7588 8.61963 27.7947 9.62948 27.7947 10.873C27.7947 12.1165 28.7588 13.1264 29.9461 13.1264Z" fill="#A434A5"/>
</svg>
