<svg width="48" height="48" viewBox="0 0 48 48" fill="none" xmlns="http://www.w3.org/2000/svg">
<path d="M33.8939 3H13.9707C8.46653 3 3.98877 7.6899 3.98877 13.4548V32.5452C3.98877 38.3101 8.46653 43 13.9707 43H33.8939C39.398 43 43.8758 38.3101 43.8758 32.5452V13.4548C43.8758 7.6899 39.398 3 33.8939 3ZM7.51007 13.4548C7.51007 9.72416 10.4088 6.68813 13.9707 6.68813H33.8939C37.4558 6.68813 40.3545 9.72416 40.3545 13.4548V32.5452C40.3545 36.2758 37.4558 39.3119 33.8939 39.3119H13.9707C10.4088 39.3119 7.51007 36.2758 7.51007 32.5452V13.4548Z" fill="#A434A5"/>
<path d="M23.7153 32.4631C28.8337 32.4631 33.0001 28.1016 33.0001 22.7383C33.0001 17.3751 28.8359 13.0136 23.7153 13.0136C18.5946 13.0136 14.4304 17.3751 14.4304 22.7383C14.4304 28.1016 18.5946 32.4631 23.7153 32.4631ZM23.7153 16.7041C26.8937 16.7041 29.4788 19.4117 29.4788 22.7407C29.4788 26.0697 26.8937 28.7773 23.7153 28.7773C20.5369 28.7773 17.9517 26.0697 17.9517 22.7407C17.9517 19.4117 20.5369 16.7041 23.7153 16.7041Z" fill="#A434A5"/>
<path d="M34.0769 14.844C35.4552 14.844 36.5786 13.6698 36.5786 12.2238C36.5786 10.7779 35.4574 9.60364 34.0769 9.60364C32.6963 9.60364 31.5752 10.7779 31.5752 12.2238C31.5752 13.6698 32.6963 14.844 34.0769 14.844Z" fill="#A434A5"/>
</svg>
