<svg width="43" height="42" viewBox="0 0 43 42" fill="none" xmlns="http://www.w3.org/2000/svg">
<circle cx="21.6211" cy="20.9998" r="17.2" fill="#0077B5"/>
<path fill-rule="evenodd" clip-rule="evenodd" d="M17.127 12.6443C17.127 13.7151 16.3117 14.5817 15.0367 14.5817C13.8114 14.5817 12.9961 13.7151 13.0213 12.6443C12.9961 11.5215 13.8114 10.6802 15.0611 10.6802C16.3117 10.6802 17.1026 11.5215 17.127 12.6443ZM13.1238 28.5846V16.1121H17.0001V28.5838H13.1238V28.5846Z" fill="white"/>
<path fill-rule="evenodd" clip-rule="evenodd" d="M20.1069 20.0931C20.1069 18.5374 20.0556 17.2112 20.0044 16.1144H23.3713L23.5503 17.8231H23.6268C24.1369 17.0322 25.4119 15.8345 27.4778 15.8345C30.0278 15.8345 31.9407 17.5179 31.9407 21.1891V28.5868H28.0644V21.6749C28.0644 20.0671 27.5038 18.9711 26.1011 18.9711C25.0295 18.9711 24.3924 19.7107 24.1377 20.4243C24.0352 20.6798 23.9847 21.0362 23.9847 21.3942V28.5868H20.1085V20.0931H20.1069Z" fill="white"/>
</svg>
