<svg width="116" height="110" viewBox="0 0 116 110" fill="none" xmlns="http://www.w3.org/2000/svg">
<path d="M57.6914 1.06125C57.8417 0.601836 58.4916 0.601838 58.6419 1.06125L71.5917 40.6528C71.7934 41.2694 72.3686 41.6864 73.0174 41.6864H114.91C115.395 41.6864 115.596 42.3079 115.202 42.5919L81.3222 67.0442C80.7929 67.4262 80.5714 68.1065 80.7743 68.7268L93.7181 108.3C93.8686 108.76 93.3427 109.144 92.9502 108.861L59.0445 84.3898C58.5204 84.0116 57.8129 84.0116 57.2888 84.3898L23.3831 108.861C22.9906 109.144 22.4648 108.76 22.6152 108.3L35.559 68.7268C35.7619 68.1065 35.5404 67.4262 35.0112 67.0442L1.13104 42.5919C0.737632 42.3079 0.938485 41.6864 1.42365 41.6864H43.3159C43.9647 41.6864 44.5399 41.2694 44.7416 40.6528L57.6914 1.06125Z" fill="white" stroke="#444444"/>
</svg>
