<svg width="117" height="110" viewBox="0 0 117 110" fill="none" xmlns="http://www.w3.org/2000/svg">
<path d="M57.8582 1.06125C58.0084 0.601836 58.6584 0.601838 58.8086 1.06125L71.7584 40.6528C71.9601 41.2694 72.5354 41.6864 73.1841 41.6864H115.076C115.562 41.6864 115.762 42.3079 115.369 42.5919L81.4889 67.0442C80.9597 67.4262 80.7382 68.1065 80.9411 68.7268L93.8848 108.3C94.0353 108.76 93.5095 109.144 93.117 108.861L59.2112 84.3898C58.6871 84.0116 57.9797 84.0116 57.4556 84.3898L23.5498 108.861C23.1573 109.144 22.6315 108.76 22.782 108.3L35.7257 68.7268C35.9286 68.1065 35.7071 67.4262 35.1779 67.0442L1.29778 42.5919C0.90438 42.3079 1.10523 41.6864 1.5904 41.6864H43.4827C44.1314 41.6864 44.7067 41.2694 44.9084 40.6528L57.8582 1.06125Z" fill="white" stroke="#444444"/>
</svg>
