<svg width="116" height="110" viewBox="0 0 116 110" fill="none" xmlns="http://www.w3.org/2000/svg">
<path d="M57.3582 1.06125C57.5085 0.601835 58.1584 0.601838 58.3086 1.06125L71.2585 40.6528C71.4602 41.2694 72.0354 41.6864 72.6841 41.6864H114.576C115.062 41.6864 115.262 42.3079 114.869 42.5919L80.9889 67.0442C80.4597 67.4262 80.2382 68.1065 80.4411 68.7268L93.3848 108.3C93.5353 108.76 93.0095 109.144 92.617 108.861L58.7113 84.3898C58.1872 84.0116 57.4797 84.0116 56.9556 84.3898L23.0498 108.861C22.6573 109.144 22.1315 108.76 22.282 108.3L35.2257 68.7268C35.4286 68.1065 35.2071 67.4262 34.6779 67.0442L0.797785 42.5919C0.40438 42.3079 0.605234 41.6864 1.0904 41.6864H42.9827C43.6315 41.6864 44.2067 41.2694 44.4084 40.6528L57.3582 1.06125Z" fill="white" stroke="#444444"/>
</svg>
