<svg width="117" height="110" viewBox="0 0 117 110" fill="none" xmlns="http://www.w3.org/2000/svg">
<path d="M58.1914 1.06125C58.3417 0.601836 58.9916 0.601838 59.1419 1.06125L72.0917 40.6528C72.2934 41.2694 72.8686 41.6864 73.5174 41.6864H115.41C115.895 41.6864 116.096 42.3079 115.702 42.5919L81.8222 67.0442C81.2929 67.4262 81.0714 68.1065 81.2743 68.7268L94.2181 108.3C94.3686 108.76 93.8428 109.144 93.4502 108.861L59.5445 84.3898C59.0204 84.0116 58.3129 84.0116 57.7888 84.3898L23.8831 108.861C23.4906 109.144 22.9648 108.76 23.1152 108.3L36.059 68.7268C36.2619 68.1065 36.0404 67.4262 35.5112 67.0442L1.63104 42.5919C1.23763 42.3079 1.43848 41.6864 1.92365 41.6864H43.8159C44.4647 41.6864 45.0399 41.2694 45.2416 40.6528L58.1914 1.06125Z" fill="white" stroke="#444444"/>
</svg>
